<?xml version="1.0" encoding="utf-8"?>
<!-- Generator: Adobe Illustrator 19.2.1, SVG Export Plug-In . SVG Version: 6.00 Build 0)  -->
<svg version="1.1" id="Warstwa_1" xmlns="http://www.w3.org/2000/svg" xmlns:xlink="http://www.w3.org/1999/xlink" x="0px" y="0px"
	 viewBox="0 0 200 200" style="enable-background:new 0 0 200 200;" xml:space="preserve">
<style type="text/css">
	.st0{fill:#3A8ECD;stroke:#164193;stroke-miterlimit:10;}
	.st1{fill:#FFFFFF;stroke:#164193;stroke-miterlimit:10;}
	.st2{fill:#3A8ECD;}
	.st3{fill:#164193;}
	.st4{fill:#FFFFFF;}
	.st5{fill:none;stroke:#164193;stroke-width:4;stroke-miterlimit:10;}
	.st6{fill:none;stroke:#164193;stroke-width:5;stroke-linecap:round;stroke-linejoin:round;stroke-miterlimit:10;}
	.st7{fill:none;stroke:#164193;stroke-width:3;stroke-linecap:round;stroke-linejoin:round;stroke-miterlimit:10;}
	.st8{fill:none;stroke:#3A8ECD;stroke-miterlimit:10;}
	.st9{fill:none;stroke:#3A8ECD;stroke-width:3;stroke-linecap:round;stroke-miterlimit:10;}
	.st10{fill:none;stroke:#3A8ECD;stroke-width:5;stroke-linecap:round;stroke-linejoin:round;stroke-miterlimit:10;}
	.st11{fill:none;stroke:#164193;stroke-width:3;stroke-miterlimit:10;}
	.st12{fill:none;stroke:#164193;stroke-width:5;stroke-linecap:round;stroke-miterlimit:10;}
	.st13{fill:none;stroke:#164193;stroke-width:3;stroke-linecap:round;stroke-miterlimit:10;}
	.st14{fill:#3A8ECD;stroke:#164193;stroke-width:3;stroke-miterlimit:10;}
	.st15{fill:none;stroke:#3A8ECD;stroke-width:5;stroke-miterlimit:10;}
	.st16{fill:none;stroke:#3A8ECD;stroke-width:3;stroke-linecap:round;stroke-linejoin:round;stroke-miterlimit:10;}
	.st17{fill:#FFFFFF;stroke:#3A8ECD;stroke-width:2;stroke-miterlimit:10;}
</style>
<g>
	<g>
		<path class="st15" d="M141.7,80.8c0-24.1-20.3-43.4-44.8-41.7c-20.7,1.5-37.4,18.4-38.6,39.1c-0.8,14.1,5.3,26.7,15.3,34.9
			c3.5,2.9,5.8,7,6.3,11.5l2.9,28.8c0.9,8.6,8.1,15.2,16.8,15.2h0c8.5,0,15.8-6.4,16.8-14.9l3.5-29.3c0.5-4.3,2.6-8.3,6-11
			C135.6,105.8,141.7,94,141.7,80.8z"/>
		<g>
			<path class="st3" d="M84.9,173.7c3.9,3.9,9.2,6.3,15.1,6.3h0h0c5.9,0,11.3-2.4,15.1-6.3H84.9z"/>
		</g>
		<path class="st4" d="M130,135.8c-1-1.2-2.4-1.8-4-1.8H73.9c-1.5,0-3,0.7-4,1.8s-1.4,2.7-1.2,4.2l3.7,25.1c0.4,2.6,2.6,4.5,5.2,4.5
			h44.7c2.6,0,4.8-1.9,5.2-4.5l3.7-25.1C131.5,138.5,131,137,130,135.8z"/>
		<g>
			<line class="st6" x1="79.1" y1="139.3" x2="120.9" y2="139.3"/>
		</g>
		<g>
			<line class="st6" x1="79.7" y1="146.6" x2="120.3" y2="146.6"/>
		</g>
		<g>
			<line class="st6" x1="80.3" y1="153.9" x2="119.7" y2="153.9"/>
		</g>
		<g>
			<line class="st6" x1="80.9" y1="161.2" x2="119.1" y2="161.2"/>
		</g>
		<g>
			<line class="st6" x1="81.5" y1="168.5" x2="118.5" y2="168.5"/>
		</g>
		<g>
			<line class="st10" x1="79.1" y1="139.3" x2="100" y2="139.3"/>
		</g>
		<g>
			<line class="st10" x1="79.7" y1="146.6" x2="100" y2="146.6"/>
		</g>
		<g>
			<line class="st10" x1="80.3" y1="153.9" x2="100" y2="153.9"/>
		</g>
		<g>
			<line class="st10" x1="80.9" y1="161.2" x2="100" y2="161.2"/>
		</g>
		<g>
			<line class="st10" x1="81.5" y1="168.5" x2="100" y2="168.5"/>
		</g>
		<g>
			<path class="st2" d="M107.8,133c-0.1-2-0.1-3.9-0.1-5.9c0-2,0-3.9,0-5.9c0-2,0.1-4,0.2-5.9c0.1-2,0.2-3.9,0.4-5.9
				c0.3-3.9,0.8-7.9,1.3-11.8c0.6-3.9,1.2-7.8,2-11.7l1.3,1.1l-1.5,0.6l-1.6,0.5l-1.6,0.4l-1.6,0.4l-1.6,0.3l-1.6,0.2l-1.7,0.1
				l-1.7,0l-1.7,0l-1.7-0.1l-1.6-0.2l-1.6-0.3l-1.6-0.4L90.2,88l-1.6-0.5l-1.5-0.6l1.3-1.1c0.8,3.9,1.4,7.8,2,11.7
				c0.5,3.9,1,7.9,1.3,11.8c0.2,2,0.3,3.9,0.4,5.9c0.1,2,0.2,3.9,0.2,5.9c0,2,0.1,4,0,5.9c0,2-0.1,3.9-0.1,5.9l-0.3-5.9
				c-0.1-2-0.2-3.9-0.4-5.9l-0.5-5.9c-0.2-2-0.4-3.9-0.6-5.9c-0.5-3.9-1-7.8-1.6-11.7c-0.3-1.9-0.6-3.9-1-5.8
				c-0.4-1.9-0.8-3.9-1.1-5.8l1.3-1.1l1.5,0.6l1.5,0.5l1.5,0.4l1.5,0.3l1.5,0.3l1.5,0.2l1.6,0.1l1.6,0l1.6,0l1.6-0.1l1.5-0.2
				l1.5-0.3l1.5-0.3l1.5-0.4l1.5-0.5l1.5-0.6l0,0c0.5-0.2,1,0.1,1.2,0.5c0.1,0.2,0.1,0.4,0,0.5c-0.8,3.8-1.5,7.7-2.1,11.6
				c-0.6,3.9-1.2,7.8-1.6,11.7c-0.2,2-0.4,3.9-0.6,5.9l-0.5,5.9c-0.2,2-0.3,3.9-0.4,5.9L107.8,133z"/>
		</g>
	</g>
	<g>
		<path class="st2" d="M101.5,20L100,30.4L98.5,20c-0.1-0.8,0.5-1.6,1.3-1.7s1.6,0.5,1.7,1.3C101.5,19.7,101.5,19.9,101.5,20z"/>
	</g>
	<g>
		<path class="st2" d="M40,78.6l10.4,1.5L40,81.6c-0.8,0.1-1.6-0.5-1.7-1.3c-0.1-0.8,0.5-1.6,1.3-1.7C39.7,78.5,39.9,78.5,40,78.6z"
			/>
	</g>
	<g>
		<path class="st2" d="M160,81.6l-10.4-1.5l10.4-1.5c0.8-0.1,1.6,0.5,1.7,1.3c0.1,0.8-0.5,1.6-1.3,1.7
			C160.3,81.6,160.1,81.6,160,81.6z"/>
	</g>
	<g>
		<path class="st2" d="M47.3,108.8l9.8-3.9l-8.3,6.5c-0.7,0.5-1.6,0.4-2.1-0.3s-0.4-1.6,0.3-2.1C47,108.9,47.2,108.8,47.3,108.8z"/>
	</g>
	<g>
		<path class="st2" d="M152.7,51.3l-9.8,3.9l8.3-6.5c0.7-0.5,1.6-0.4,2.1,0.3s0.4,1.6-0.3,2.1C153,51.2,152.8,51.3,152.7,51.3z"/>
	</g>
	<g>
		<path class="st2" d="M131.3,28.8l-6.5,8.3l3.9-9.8c0.3-0.8,1.2-1.2,2-0.8s1.2,1.2,0.8,2C131.5,28.6,131.4,28.7,131.3,28.8z"/>
	</g>
	<g>
		<path class="st2" d="M71.3,27.3l3.9,9.8l-6.5-8.3c-0.5-0.7-0.4-1.6,0.3-2.1s1.6-0.4,2.1,0.3C71.2,27,71.2,27.2,71.3,27.3z"/>
	</g>
	<g>
		<path class="st2" d="M151.2,111.4l-8.3-6.5l9.8,3.9c0.8,0.3,1.2,1.2,0.8,2s-1.2,1.2-2,0.8C151.4,111.6,151.3,111.5,151.2,111.4z"
			/>
	</g>
	<g>
		<path class="st2" d="M48.8,48.7l8.3,6.5l-9.8-3.9c-0.8-0.3-1.2-1.2-0.8-2s1.2-1.2,2-0.8C48.6,48.6,48.7,48.6,48.8,48.7z"/>
	</g>
</g>
</svg>
