<?xml version="1.0" encoding="utf-8"?>
<!-- Generator: Adobe Illustrator 19.2.1, SVG Export Plug-In . SVG Version: 6.00 Build 0)  -->
<svg version="1.1" id="Warstwa_1" xmlns="http://www.w3.org/2000/svg" xmlns:xlink="http://www.w3.org/1999/xlink" x="0px" y="0px"
	 viewBox="0 0 141.7 119.1" style="enable-background:new 0 0 141.7 119.1;" xml:space="preserve">
<style type="text/css">
	.st0{fill:#3B8FCE;}
	.st1{fill:#164194;}
	.st2{fill:#3B8FCE;stroke:#3B8FCE;stroke-linecap:round;stroke-linejoin:round;stroke-miterlimit:10;}
</style>
<g>
	<path class="st0" d="M20.9,26.4c-3-0.2-6-0.6-9-1.1c-0.8-0.1-1.4,0.4-1.4,1.2c0,3.6,0,4.5,0,8c0,0.8-0.6,1.3-1.4,1
		C6.5,34.8,4,34,1.4,33C0.6,32.7,0,31.8,0,31.1c0-11.7,0-18,0-29.7C0,0.6,0.6,0,1.4,0c6.5,0,13,0,19.5,0c0.8,0,1.4,0.7,1.4,1.6
		c0,2.4,0,4.8,0,7.2c0,0.9-0.6,1.6-1.4,1.6c-3-0.1-6-0.3-9-0.5c-0.8-0.1-1.4,0.6-1.4,1.4c0,1.9,0,1,0,2.9c0,0.8,0.6,1.6,1.4,1.7
		c3,0.4,6,0.7,9,0.8c0.8,0,1.4,0.8,1.4,1.6c0,2.3,0,4.5,0,6.7C22.3,25.9,21.7,26.5,20.9,26.4z M47.7,36.8c-6.9,1-13.8,1.5-20.7,1.3
		c-0.8,0-1.4-0.7-1.4-1.5c0-12.6,0-20.6,0-34.9C25.5,0.7,26.2,0,27,0c2.5,0,5.1,0,7.6,0C35.4,0,36,0.7,36,1.7c0,10.8,0,15.6,0,25.4
		c0,0.8,0.6,1.5,1.4,1.4c3.4-0.2,6.8-0.5,10.3-0.9c0.8-0.1,1.4,0.5,1.4,1.3c0,2.1,0,4.2,0,6.3C49.1,35.9,48.4,36.6,47.7,36.8z
		 M79.6,24.9c0,4.1-2.3,6.3-6.9,7.2C68.1,33,63.6,34,59,34.8c-4.4,0.8-6.9-0.5-6.9-5c0-9.1,0-13.2,0-22.9C52.1,2.3,54.4,0,59,0
		c4.5,0,9.1,0,13.6,0c4.4,0,6.9,1.6,6.9,5.6C79.6,13.7,79.6,16.5,79.6,24.9z M69.2,22.7c0-6,0-6.5,0-12.5c0-0.8-0.6-1.3-1.4-1.3
		c-1.3,0.1-2.5,0.2-3.8,0.3c-0.8,0.1-1.4,0.7-1.4,1.5c0,6.3,0,7,0,13.2c0,0.8,0.6,1.3,1.4,1.2c1.3-0.2,2.5-0.4,3.8-0.7
		C68.5,24.2,69.2,23.5,69.2,22.7z M110.6,21.3c0,3.8-2.3,5.5-6.9,5.8c-4.5,0.3-9.1,0.9-13.6,1.7c-4.4,0.7-6.9-0.4-6.9-4.5
		c0-8.3,0-10.9,0-18.8C83.1,1.8,85.4,0,90,0c4.5,0,9.1,0,13.6,0c4.4,0,6.9,1.3,6.9,4.7C110.6,11.6,110.6,13.5,110.6,21.3z
		 M100.2,18.2c0-5.3,0-5.1,0-10c0-0.6-0.6-1.1-1.4-1.1c-1.3,0-2.5,0.1-3.8,0.2c-0.8,0-1.4,0.6-1.4,1.2c0,5.1,0,4.9,0,10.4
		c0,0.7,0.6,1.2,1.4,1.1c1.3-0.1,2.5-0.3,3.8-0.4C99.6,19.5,100.2,18.9,100.2,18.2z M141.7,26.5c0,4.1-2.5,4.9-7,3.5
		c-6.4-1.9-12.8-2.8-19.2-3.1c-0.8,0-1.4-0.6-1.4-1.3c0-10.9,0-15.4,0-24.5c0-0.6,0.6-1,1.4-1c6.4,0,12.8,0,19.2,0c4.3,0,7,1.6,7,6
		C141.7,14.6,141.7,17.9,141.7,26.5z M131.3,19.6c0-5.5,0-5.5,0-10.8c0-0.7-0.6-1.2-1.4-1.3c-1.3-0.1-2.6-0.2-3.9-0.2
		c-0.8,0-1.4,0.4-1.4,1.1c0,5,0,4.8,0,10.1c0,0.7,0.6,1.3,1.4,1.4c1.3,0.2,2.6,0.4,3.9,0.7C130.6,20.7,131.3,20.2,131.3,19.6z
		 M28.5,95.3c0,0.6-0.6,1-1.4,1c-6.4,0-12.9,0-19.3,0c-5,0-7.7-1.7-7.7-6.7C0,80.1,0,76,0,66.4c0-5.1,2.7-5.6,7.8-4.1
		c5.1,1.5,10.3,2.4,15.4,2.8c0.8,0.1,1.4,0.7,1.4,1.4c0,2.2,0,4.4,0,6.5c0,0.7-0.6,1.2-1.4,1.2c-3.4-0.2-6.9-0.6-10.3-1.3
		c-0.8-0.1-1.4,0.3-1.4,1c0,6.3,0,7,0,12.9c0,0.7,0.6,1.2,1.4,1.3c0.9,0.1,1.8,0.1,2.8,0.2c0.8,0,1.4-0.4,1.4-1.1c0-2.7,0-2.8,0-5.6
		c0-0.7,0.6-1.1,1.4-1.1c2.9,0.3,5.7,0.4,8.6,0.5c0.8,0,1.4,0.5,1.4,1.2C28.5,87.8,28.5,90.4,28.5,95.3z M60.6,96.4
		c-2.9,0-5.7,0-8.6,0c-0.8,0-1.4-0.5-1.4-1.1c0-2.4,0-4.9,0-7.5c0-0.7-0.6-1.1-1.4-1.1c-1.5,0.1-3,0.2-4.4,0.3
		c-0.8,0-1.4,0.6-1.4,1.2c0,2.4,0,4.8,0,7.1c0,0.6-0.6,1.1-1.4,1.1c-2.9,0-5.7,0-8.6,0c-0.8,0-1.4-0.5-1.4-1c0-8.8,0-13,0-23.4
		c0-4.7,2.8-6.5,7.8-6.9c4.8-0.4,9.7-1.2,14.5-2c5-0.9,7.8,0.3,7.8,5.3c0,11,0,16.4,0,26.9C62,95.8,61.4,96.4,60.6,96.4z M50.7,79.5
		c0-2.7,0-2.7,0-5.5c0-0.7-0.6-1.2-1.4-1.1c-1.5,0.2-3,0.4-4.5,0.6c-0.8,0.1-1.4,0.7-1.4,1.4c0,2.7,0,2.7,0,5.3
		c0,0.7,0.6,1.1,1.4,1.1c1.5-0.1,3-0.3,4.5-0.4C50,80.8,50.7,80.2,50.7,79.5z M110.8,96.4c-2.9,0-5.7,0-8.6,0
		c-0.8,0-1.4-0.7-1.4-1.6c0-12,0-18,0-28.8c0-0.8-0.6-1.4-1.4-1.3c-1.1,0.1-2.2,0.2-3.3,0.4c-0.8,0.1-1.4,0.8-1.4,1.6
		c0,10.7,0,16.5,0,28.2c0,0.9-0.6,1.6-1.4,1.6c-2.9,0-5.7,0-8.6,0c-0.8,0-1.4-0.7-1.4-1.5c0-11,0-16.2,0-26.6c0-0.8-0.6-1.3-1.4-1.2
		c-1.1,0.2-2.2,0.4-3.3,0.6c-0.8,0.1-1.4,0.9-1.4,1.6c0,10.2,0,15.1,0,25.6c0,0.8-0.6,1.4-1.4,1.4c-2.9,0-5.7,0-8.6,0
		c-0.8,0-1.4-0.6-1.4-1.3c0-12.6,0-20.1,0-33.1c0-0.7,0.6-1.5,1.4-1.6c12.4-2.7,24.8-5.5,37.1-6.4c5-0.3,7.9,1.7,7.9,7.1
		c0,12.2,0,19.9,0,33.8C112.2,95.6,111.6,96.4,110.8,96.4z M140.3,96.4c-7.6,0-15.3,0-22.9,0c-0.8,0-1.4-0.7-1.4-1.7
		c0-16.1,0-25.7,0-39.6c0-0.8,0.6-1.4,1.4-1.3c7.6,0.5,15.3,2,22.9,5.1c0.8,0.3,1.4,1.2,1.4,1.9c0,2.3,0,4.7,0,7
		c0,0.7-0.6,1.1-1.4,0.8c-3.8-1.4-7.7-2.4-11.5-3.2c-0.8-0.2-1.4,0.4-1.4,1.2c0,1.3,0,0,0,1.3c0,0.8,0.6,1.6,1.4,1.7
		c3.8,0.6,7.7,1.5,11.5,2.7c0.8,0.2,1.4,1.1,1.4,1.8c0,2.3,0,4.6,0,6.9c0,0.7-0.6,1.2-1.4,1c-3.8-0.9-7.7-1.5-11.5-1.9
		c-0.8-0.1-1.4,0.5-1.4,1.4c0,1.5,0,0.4,0,2c0,0.9,0.6,1.6,1.4,1.6c3.8,0.3,7.7,0.7,11.5,1.2c0.8,0.1,1.4,0.8,1.4,1.6
		c0,2.3,0,4.7,0,7C141.7,95.8,141.1,96.4,140.3,96.4z"/>
	<path class="st1" d="M111.6,103.5H0.6c-0.3,0-0.6-0.3-0.6-0.6l0-3.1c0-0.3,0.3-0.6,0.6-0.6h111.1c0.3,0,0.6,0.3,0.6,0.6v3.1
		C112.2,103.2,112,103.5,111.6,103.5z"/>
	<path class="st1" d="M141.2,103.5h-24.6c-0.3,0-0.6-0.3-0.6-0.6v-3.1c0-0.3,0.3-0.6,0.6-0.6h24.6c0.3,0,0.6,0.3,0.6,0.6v3.1
		C141.7,103.2,141.5,103.5,141.2,103.5z"/>
	<path class="st2" d="M117.6,115.5c0,1-0.4,1.9-1,2.5s-1.5,1.1-2.5,1.1c-1,0-1.9-0.4-2.5-1.1s-1-1.6-1-2.5c0-2.2,1.6-4.2,2.5-5.9
		s1.1-3.2,1.1-3.2s0.2,1.5,1.1,3.2S117.6,113.1,117.6,115.5z"/>
	<g>
		<path class="st1" d="M15.2,49.1c0-1.9,0-3.8,0-5.7c0-2.7-1.4-3.9-4-4.5c-3.2-0.8-6.5-1.8-9.7-3.1c-0.8-0.3-1.4,0-1.4,0.8
			c0,6.3,0,12.6,0,18.9c0,0.7,0.6,1.6,1.4,2c1,0.4,2,0.8,3.1,1.2c0.8,0.3,1.4-0.1,1.4-0.8c0-1.5,0-3,0-4.5c0-0.7,0.6-1.1,1.4-0.9
			c0.2,0.1,0.3,0.1,0.5,0.2c0.8,0.2,1.4,1,1.4,1.8c0,1.5,0,3,0,4.5c0,0.7,0.6,1.5,1.4,1.7c1,0.3,2,0.5,3.1,0.7
			c0.8,0.2,1.4-0.3,1.4-1c0-1.9,0-3.8,0-5.7c0-1.6-0.8-2.5-2.1-3c0,0,0,0,0-0.1C14.4,51.3,15.2,50.7,15.2,49.1z M9.3,46.6
			c0,0.8-0.6,1.2-1.4,0.9c-0.2-0.1-0.3-0.1-0.5-0.2c-0.8-0.2-1.4-1.1-1.4-1.8c0-0.6,0-1.2,0-1.8c0-0.8,0.6-1.2,1.4-0.9
			C7.5,42.9,7.7,43,7.8,43c0.8,0.2,1.4,1,1.4,1.8C9.3,45.4,9.3,46,9.3,46.6z"/>
		<g>
			<path class="st1" d="M29.3,62.8c-3.5,0-7-0.3-10.5-0.7c-0.8-0.1-1.4-0.8-1.4-1.5c0-6.1,0-12.5,0-19.1c0-0.8,0.6-1.3,1.4-1.2
				c3.5,0.5,7,0.7,10.5,0.7c0.8,0,1.4,0.6,1.4,1.4c0,0.8,0,1.6,0,2.4c0,0.8-0.6,1.4-1.4,1.4c-1.5,0-3-0.1-4.6-0.2
				c-0.8,0-1.4,0.5-1.4,1.3c0,0.2,0,0.4,0,0.6c0,0.8,0.6,1.4,1.4,1.5c1.5,0.1,3,0.1,4.6,0.2c0.8,0,1.4,0.6,1.4,1.4
				c0,0.8,0,1.5,0,2.2c0,0.8-0.6,1.4-1.4,1.4c-1.5,0-3-0.1-4.6-0.2c-0.8,0-1.4,0.5-1.4,1.2c0,0.3,0,0.5,0,0.8c0,0.7,0.6,1.4,1.4,1.4
				c1.5,0.1,3,0.1,4.6,0.2c0.8,0,1.4,0.6,1.4,1.3c0,0.7,0,1.5,0,2.2C30.7,62.2,30.1,62.8,29.3,62.8z"/>
		</g>
		<g>
			<path class="st1" d="M46.4,58.2c0,2.4-1.4,3.5-4,3.8c-2.8,0.3-5.5,0.5-8.3,0.7c-0.8,0-1.4-0.5-1.4-1.3c0-0.7,0-1.5,0-2.2
				c0-0.7,0.6-1.3,1.4-1.4c1.6-0.1,3.3-0.2,4.9-0.3c0.8-0.1,1.4-0.7,1.4-1.5c0-0.3,0-0.5,0-0.8c0-0.7-0.6-1.3-1.4-1.2
				c-0.8,0.1-1.6,0.1-2.4,0.2c-3.2,0.2-4-1.3-4-3.2c0-2.1,0-4.3,0-6.5c0-2.7,1.4-3.7,4-3.9c2.6-0.2,5.1-0.4,7.7-0.7
				c0.8-0.1,1.4,0.5,1.4,1.2c0,0.8,0,1.6,0,2.3c0,0.8-0.6,1.5-1.4,1.6c-1.5,0.2-2.9,0.4-4.4,0.5c-0.8,0.1-1.4,0.8-1.4,1.5
				c0,0.2,0,0.4,0,0.6c0,0.8,0.6,1.3,1.4,1.3c0.8-0.1,1.5-0.2,2.3-0.2c2.8-0.3,4,0.6,4,3.2C46.4,54.1,46.4,56.2,46.4,58.2z"/>
		</g>
		<g>
			<path class="st1" d="M53,60.5c-1,0.2-2,0.4-3.1,0.5c-0.8,0.1-1.4-0.4-1.4-1.1c0-6.2,0-12.5,0-19.1c0-0.8,0.6-1.5,1.4-1.6
				c1-0.2,2-0.3,3.1-0.5c0.8-0.1,1.4,0.4,1.4,1.1c0,6.5,0,12.8,0,19C54.4,59.6,53.8,60.4,53,60.5z"/>
		</g>
		<g>
			<path class="st1" d="M68.5,57.3c-3.5,0.8-7,1.5-10.5,2.2c-0.8,0.2-1.4-0.3-1.4-1.1c0-6.2,0-12.6,0-19c0-0.8,0.6-1.5,1.4-1.7
				c1-0.2,2-0.4,3.1-0.6c0.8-0.2,1.4,0.3,1.4,1.1c0,4.7,0,9.4,0,14.1c0,0.7,0.6,1.2,1.4,1c1.5-0.3,3-0.7,4.6-1
				c0.8-0.2,1.4,0.3,1.4,1c0,0.7,0,1.5,0,2.2C69.9,56.4,69.2,57.2,68.5,57.3z"/>
		</g>
		<g>
			<path class="st1" d="M76.3,55.6c-1,0.2-2,0.4-3.1,0.7c-0.8,0.2-1.4-0.3-1.4-1c0-6.3,0-12.6,0-18.9c0-0.7,0.6-1.5,1.4-1.7
				c1-0.2,2-0.4,3.1-0.7c0.8-0.2,1.4,0.3,1.4,1c0,6.2,0,12.5,0,18.9C77.7,54.7,77.1,55.4,76.3,55.6z"/>
		</g>
		<g>
			<path class="st1" d="M91.8,52.6c-3.5,0.6-7,1.2-10.5,2c-0.8,0.2-1.4-0.3-1.4-1.1c0-6.4,0-12.7,0-18.9c0-0.7,0.6-1.5,1.4-1.6
				c3.5-0.7,7-1.3,10.5-1.9c0.8-0.1,1.4,0.4,1.4,1.1c0,0.7,0,1.4,0,2.2c0,0.7-0.6,1.4-1.4,1.5c-1.5,0.2-3,0.5-4.6,0.8
				c-0.8,0.1-1.4,0.9-1.4,1.6c0,0.2,0,0.4,0,0.6c0,0.7,0.6,1.2,1.4,1.1c1.5-0.3,3-0.6,4.6-0.8c0.8-0.1,1.4,0.4,1.4,1.1
				c0,0.7,0,1.5,0,2.2c0,0.7-0.6,1.5-1.4,1.6c-1.5,0.3-3,0.5-4.6,0.8c-0.8,0.1-1.4,0.9-1.4,1.6c0,0.3,0,0.5,0,0.8
				c0,0.8,0.6,1.2,1.4,1.1c1.5-0.3,3-0.6,4.6-0.8c0.8-0.1,1.4,0.4,1.4,1.1c0,0.8,0,1.5,0,2.3C93.2,51.7,92.5,52.4,91.8,52.6z"/>
		</g>
		<g>
			<path class="st1" d="M109.4,50.8c-1,0-2,0.1-3.1,0.1c-0.8,0-1.4-0.5-1.4-1.3c0-4.8,0-9.5,0-14c0-0.7-0.6-1.3-1.4-1.2
				c-0.3,0-0.6,0.1-0.9,0.1c-0.8,0.1-1.4,0.7-1.4,1.4c0,4.5,0,9.2,0,14c0,0.8-0.6,1.5-1.4,1.5c-1,0.1-2,0.2-3.1,0.4
				c-0.8,0.1-1.4-0.4-1.4-1.2c0-6.5,0-12.7,0-18.8c0-0.7,0.6-1.4,1.4-1.5c3.4-0.4,6.7-0.8,10.1-0.9c2.6-0.1,4,0.8,4,3.3
				c0,5.4,0,10.9,0,16.7C110.8,50.1,110.2,50.8,109.4,50.8z"/>
		</g>
		<g>
			<path class="st1" d="M125.1,51.8c-3.5-0.6-7.1-0.9-10.6-1c-0.8,0-1.4-0.7-1.4-1.4c0-6.5,0-12.8,0-18.8c0-0.7,0.6-1.3,1.4-1.3
				c3.5,0.1,7.1,0.4,10.6,1c0.8,0.1,1.4,0.8,1.4,1.5c0,0.7,0,1.4,0,2.2c0,0.7-0.6,1.2-1.4,1.1c-1.6-0.3-3.2-0.5-4.7-0.6
				c-0.8-0.1-1.4,0.5-1.4,1.2c0,2.9,0,5.9,0,8.9c0,0.8,0.6,1.4,1.4,1.5c1.6,0.2,3.2,0.4,4.7,0.7c0.8,0.1,1.4,0.9,1.4,1.6
				c0,0.8,0,1.5,0,2.3C126.5,51.5,125.9,52,125.1,51.8z"/>
		</g>
		<g>
			<path class="st1" d="M140.3,56.2c-3.5-1.5-7-2.6-10.5-3.4c-0.8-0.2-1.4-0.9-1.4-1.7c0-6.5,0-12.7,0-18.8c0-0.7,0.6-1.2,1.4-1
				c3.5,0.8,7,1.9,10.5,3.3c0.8,0.3,1.4,1.2,1.4,1.9c0,0.8,0,1.5,0,2.3c0,0.7-0.6,1.1-1.4,0.7c-1.5-0.6-3-1.2-4.6-1.7
				c-0.8-0.3-1.4,0.1-1.4,0.9c0,0.2,0,0.4,0,0.6c0,0.7,0.6,1.5,1.4,1.8c1.5,0.5,3,1.1,4.6,1.7c0.8,0.3,1.4,1.2,1.4,2
				c0,0.7,0,1.5,0,2.2c0,0.7-0.6,1.1-1.4,0.7c-1.5-0.6-3-1.2-4.6-1.8c-0.8-0.3-1.4,0.1-1.4,0.9c0,0.3,0,0.5,0,0.8
				c0,0.8,0.6,1.6,1.4,1.8c1.5,0.5,3,1.1,4.6,1.7c0.8,0.3,1.4,1.2,1.4,2c0,0.8,0,1.5,0,2.3C141.7,56.2,141.1,56.5,140.3,56.2z"/>
		</g>
	</g>
</g>
</svg>
